# xmcd
#
# Track frame offsets:
#	150
#	22550
#	41125
#	62950
#	79075
#	100550
#	117250
#	143625
#	163025
#	187937
#
# Disc length: 2806 seconds
#
# Revision: 4
# Processed by: cddbd v1.5.2PL0 Copyright (c) Steve Scherf et al.
# Submitted via: audiograbber 1.83.01
#
DISCID=740af40a
DTITLE=Sally Barker - This Rhythm Is Mine
DYEAR=1990
DGENRE=Folk
TTITLE0=Money's Talking
TTITLE1=This Rhythm Is Mine
TTITLE2=Angry Women
TTITLE3=Lay Your Body Down
TTITLE4=While You Sleep
TTITLE5=Big World
TTITLE6=Chinese Whispers
TTITLE7=Or Did You Jump?
TTITLE8=Married Man
TTITLE9=The Simple Life
EXTD=
EXTT0=
EXTT1=
EXTT2=
EXTT3=
EXTT4=
EXTT5=
EXTT6=
EXTT7=
EXTT8=
EXTT9=
PLAYORDER=
